# xmcd CD database file
#
# Track frame offsets:
#	150
#	16223
#	32053
#	57250
#	77198
#	97577
#	124112
#	143241
#	160734
#	182144
#
# Disc length: 2891 seconds
#
# Revision: 5
# Processed by: cddbd v1.5PL3 Copyright (c) Steve Scherf et al.
# Submitted via: CDex 1.51
#
DISCID=760b490a
DTITLE=BoA - Peace B. REMIXES
DYEAR=2002
DGENRE=Pop
TTITLE0=Listen To My Heart [Akira's Un Momento Remix]
TTITLE1=Amazing Kiss [Thunderpuss Japanese Club Mix]
TTITLE2=Every Heart -Minna No Kimochi- [Groove That Soul Mix]
TTITLE3=POWER [Masters Of Funk Remix]
TTITLE4=ID;Peace B [Shinichi Osawa Remix]
TTITLE5=Share your heart (with me) [Dub's Lovers Rock Remix]
TTITLE6=Don't start now [Two Main Guys Mix]
TTITLE7=Kimochi Wa Tsutawaru [L12 Remix feat. Rude Boy Face]
TTITLE8=Amazing Kiss [Tiny Voice,Production Remix]
TTITLE9=Listen To My Heart [Hex Hector Main Japanese Club Mix]
EXTD=YEAR: 2002
EXTT0=
EXTT1=
EXTT2=
EXTT3=
EXTT4=
EXTT5=
EXTT6=
EXTT7=
EXTT8=
EXTT9=
PLAYORDER=
